<svg data-v-423bf9ae="" xmlns="http://www.w3.org/2000/svg" viewBox="0 0 401 90" class="iconLeft"><!----><!----><!----><g data-v-423bf9ae="" id="21de43d6-4379-4d13-9b2a-82a899a80d89" fill="#FFFFFF" transform="matrix(6.153846153846154,0,0,6.153846153846154,78.60971437509244,8.415384650230408)"><path d="M7.11 1.07L7.11 1.07L7.11 1.07Q7.76 1.07 8.32 1.14L8.32 1.14L8.32 1.14Q8.88 1.20 9.39 1.32L9.39 1.32L9.39 1.32Q9.91 1.44 10.39 1.61L10.39 1.61L10.39 1.61Q10.88 1.78 11.37 1.98L11.37 1.98L11.37 3.02L11.37 3.02Q10.98 2.78 10.54 2.56L10.54 2.56L10.54 2.56Q10.10 2.34 9.59 2.17L9.59 2.17L9.59 2.17Q9.08 2.01 8.49 1.91L8.49 1.91L8.49 1.91Q7.91 1.82 7.24 1.82L7.24 1.82L7.24 1.82Q5.87 1.82 4.85 2.11L4.85 2.11L4.85 2.11Q3.83 2.39 3.16 2.93L3.16 2.93L3.16 2.93Q2.48 3.46 2.14 4.22L2.14 4.22L2.14 4.22Q1.80 4.99 1.80 5.95L1.80 5.95L1.80 5.95Q1.80 6.84 2.14 7.60L2.14 7.60L2.14 7.60Q2.47 8.35 3.14 8.90L3.14 8.90L3.14 8.90Q3.81 9.45 4.83 9.75L4.83 9.75L4.83 9.75Q5.84 10.06 7.20 10.06L7.20 10.06L7.20 10.06Q7.73 10.06 8.25 10.02L8.25 10.02L8.25 10.02Q8.78 9.98 9.24 9.92L9.24 9.92L9.24 9.92Q9.71 9.85 10.09 9.77L10.09 9.77L10.09 9.77Q10.47 9.69 10.74 9.61L10.74 9.61L10.74 6.76L6.92 6.76L6.92 5.96L11.59 5.96L11.59 10.09L11.59 10.09Q11.09 10.27 10.57 10.40L10.57 10.40L10.57 10.40Q10.06 10.54 9.51 10.63L9.51 10.63L9.51 10.63Q8.96 10.73 8.36 10.77L8.36 10.77L8.36 10.77Q7.77 10.82 7.12 10.82L7.12 10.82L7.12 10.82Q5.80 10.82 4.66 10.52L4.66 10.52L4.66 10.52Q3.53 10.23 2.70 9.62L2.70 9.62L2.70 9.62Q1.87 9.02 1.39 8.10L1.39 8.10L1.39 8.10Q0.92 7.18 0.92 5.95L0.92 5.95L0.92 5.95Q0.92 5.12 1.14 4.44L1.14 4.44L1.14 4.44Q1.36 3.76 1.76 3.22L1.76 3.22L1.76 3.22Q2.16 2.67 2.72 2.27L2.72 2.27L2.72 2.27Q3.29 1.87 3.98 1.60L3.98 1.60L3.98 1.60Q4.66 1.34 5.46 1.21L5.46 1.21L5.46 1.21Q6.25 1.07 7.11 1.07ZM19.00 6.62L15.18 6.62L15.18 10.64L14.32 10.64L14.32 1.24L19.00 1.24L19.00 1.24Q20.07 1.24 20.84 1.41L20.84 1.41L20.84 1.41Q21.60 1.58 22.09 1.92L22.09 1.92L22.09 1.92Q22.58 2.26 22.80 2.76L22.80 2.76L22.80 2.76Q23.03 3.27 23.03 3.94L23.03 3.94L23.03 3.94Q23.03 5.00 22.48 5.63L22.48 5.63L22.48 5.63Q21.92 6.26 20.69 6.49L20.69 6.49L23.90 10.64L22.83 10.64L19.80 6.59L19.80 6.59Q19.61 6.60 19.41 6.61L19.41 6.61L19.41 6.61Q19.21 6.62 19.00 6.62L19.00 6.62ZM22.15 3.94L22.15 3.94L22.15 3.94Q22.15 3.34 21.94 2.97L21.94 2.97L21.94 2.97Q21.72 2.60 21.25 2.39L21.25 2.39L21.25 2.39Q20.77 2.19 19.99 2.12L19.99 2.12L19.99 2.12Q19.22 2.04 18.09 2.04L18.09 2.04L15.18 2.04L15.18 5.82L18.06 5.82L18.06 5.82Q19.19 5.82 19.97 5.75L19.97 5.75L19.97 5.75Q20.75 5.69 21.23 5.49L21.23 5.49L21.23 5.49Q21.72 5.28 21.93 4.92L21.93 4.92L21.93 4.92Q22.15 4.55 22.15 3.94ZM26.84 10.64L25.98 10.64L25.98 1.24L26.84 1.24L26.84 10.64ZM39.63 9.89L39.63 9.89L39.63 9.89Q39.14 10.10 38.66 10.27L38.66 10.27L38.66 10.27Q38.18 10.44 37.66 10.56L37.66 10.56L37.66 10.56Q37.14 10.68 36.57 10.75L36.57 10.75L36.57 10.75Q35.99 10.82 35.31 10.82L35.31 10.82L35.31 10.82Q34.48 10.82 33.71 10.68L33.71 10.68L33.71 10.68Q32.94 10.55 32.28 10.27L32.28 10.27L32.28 10.27Q31.62 10.00 31.08 9.59L31.08 9.59L31.08 9.59Q30.54 9.19 30.15 8.65L30.15 8.65L30.15 8.65Q29.76 8.11 29.56 7.43L29.56 7.43L29.56 7.43Q29.35 6.75 29.35 5.95L29.35 5.95L29.35 5.95Q29.35 5.14 29.56 4.46L29.56 4.46L29.56 4.46Q29.76 3.79 30.15 3.25L30.15 3.25L30.15 3.25Q30.54 2.71 31.08 2.30L31.08 2.30L31.08 2.30Q31.62 1.89 32.28 1.62L32.28 1.62L32.28 1.62Q32.94 1.35 33.71 1.21L33.71 1.21L33.71 1.21Q34.47 1.07 35.31 1.07L35.31 1.07L35.31 1.07Q35.99 1.07 36.57 1.14L36.57 1.14L36.57 1.14Q37.14 1.21 37.66 1.33L37.66 1.33L37.66 1.33Q38.18 1.46 38.66 1.62L38.66 1.62L38.66 1.62Q39.14 1.79 39.63 2.00L39.63 2.00L39.63 3.02L39.63 3.02Q39.25 2.78 38.80 2.56L38.80 2.56L38.80 2.56Q38.36 2.34 37.84 2.17L37.84 2.17L37.84 2.17Q37.32 2.01 36.74 1.91L36.74 1.91L36.74 1.91Q36.15 1.82 35.48 1.82L35.48 1.82L35.48 1.82Q34.13 1.82 33.13 2.11L33.13 2.11L33.13 2.11Q32.14 2.41 31.50 2.94L31.50 2.94L31.50 2.94Q30.85 3.48 30.54 4.24L30.54 4.24L30.54 4.24Q30.23 5.00 30.23 5.95L30.23 5.95L30.23 5.95Q30.23 6.89 30.54 7.65L30.54 7.65L30.54 7.65Q30.85 8.41 31.50 8.94L31.50 8.94L31.50 8.94Q32.14 9.48 33.13 9.77L33.13 9.77L33.13 9.77Q34.13 10.06 35.48 10.06L35.48 10.06L35.48 10.06Q36.15 10.06 36.75 9.97L36.75 9.97L36.75 9.97Q37.34 9.87 37.87 9.71L37.87 9.71L37.87 9.71Q38.39 9.54 38.83 9.33L38.83 9.33L38.83 9.33Q39.27 9.11 39.63 8.87L39.63 8.87L39.63 9.89ZM52.29 10.64L51.44 10.64L51.44 6.08L43.03 6.08L43.03 10.64L42.17 10.64L42.17 1.24L43.03 1.24L43.03 5.29L51.44 5.29L51.44 1.24L52.29 1.24L52.29 10.64Z"></path></g><!----><g data-v-423bf9ae="" id="cbf58ad1-710f-462b-aac5-45defde0f4e7" transform="matrix(2.8125,0,0,2.8125,-12.426001459360123,0)" stroke="none" fill="#56147F"><path d="M27.377 11.377L16 0 4.623 11.377 16 22.753l11.377-11.376zM16 6.026l5.35 5.35L16 16.727l-5.35-5.35L16 6.026zM27.426 14.969l-5.664 5.664V32h5.664zM10.238 20.633l-5.664-5.664V32h5.664z"></path></g><!----></svg>